# xmcd
#
# Track frame offsets: 
#        150
#        20387
#        39875
#        54275
#        75737
#        95700
#        119312
#        137025
#        172425
#        194575
#        217762
#        240600
#
# Disc length: 3596 seconds
#
# Revision: 0
# Processed by: cddbd v1.4PL0 Copyright (c) Steve Scherf et al.
# Submitted via: ExactAudioCopy v0.95a3
#
DISCID=a10e0a0c
DTITLE=Axel Zwingenberger - Axel Zwingenberger And The Friends Of Boog
DTITLE=ie Woogie - Vol.4
DYEAR=1992
DGENRE=Blues
TTITLE0=Make Me A Pallet On The Floor
TTITLE1=How Long Will It Be
TTITLE2=Monkey Woman Blues
TTITLE3=Crying In My Sleep
TTITLE4=Stella Yancey Blues
TTITLE5=Blues At The Burying Ground
TTITLE6=Chicago Melody
TTITLE7=Midnight Plea
TTITLE8=2.19 Blues
TTITLE9=Santa Fé Blues
TTITLE10=Weekly Blues
TTITLE11=Four O'Clock Blues
EXTD=
EXTT0=
EXTT1=
EXTT2=
EXTT3=
EXTT4=
EXTT5=
EXTT6=
EXTT7=
EXTT8=
EXTT9=
EXTT10=
EXTT11=
PLAYORDER=
